<?xml version="1.0" encoding="UTF-8" standalone="no"?>
<!-- Created with Inkscape (http://www.inkscape.org/) -->

<svg
   xmlns:dc="http://purl.org/dc/elements/1.1/"
   xmlns:cc="http://creativecommons.org/ns#"
   xmlns:rdf="http://www.w3.org/1999/02/22-rdf-syntax-ns#"
   xmlns:svg="http://www.w3.org/2000/svg"
   xmlns="http://www.w3.org/2000/svg"
   xmlns:sodipodi="http://sodipodi.sourceforge.net/DTD/sodipodi-0.dtd"
   xmlns:inkscape="http://www.inkscape.org/namespaces/inkscape"
   id="svg2"
   version="1.1"
   inkscape:version="0.48.4 r9939"
   width="389"
   height="518"
   sodipodi:docname="coffe.svg">
  <sodipodi:namedview
     pagecolor="#ffffff"
     bordercolor="#666666"
     borderopacity="1"
     objecttolerance="10"
     gridtolerance="10"
     guidetolerance="10"
     inkscape:pageopacity="0"
     inkscape:pageshadow="2"
     inkscape:window-width="1364"
     inkscape:window-height="731"
     id="namedview4"
     showgrid="false"
     inkscape:zoom="6.333638"
     inkscape:cx="147.43932"
     inkscape:cy="247.20945"
     inkscape:window-x="0"
     inkscape:window-y="0"
     inkscape:window-maximized="0"
     inkscape:current-layer="layer1" />
  <metadata
     id="metadata8">
    <rdf:RDF>
      <cc:Work
         rdf:about="">
        <dc:format>image/svg+xml</dc:format>
        <dc:type
           rdf:resource="http://purl.org/dc/dcmitype/StillImage" />
        <dc:title />
      </cc:Work>
    </rdf:RDF>
  </metadata>
  <defs
     id="defs6" />
  <g
     inkscape:groupmode="layer"
     id="layer2"
     inkscape:label="small"
     style="display:inline">
    <path
       style="fill:#000000;fill-opacity:1;stroke:#000000;stroke-width:1px;stroke-linecap:butt;stroke-linejoin:miter;stroke-opacity:1"
       d="m 147.15625,234.28125 4.25819,54.6119 21.61681,1.2631 -4.71875,-54.9375 z"
       id="path3797"
       inkscape:connector-curvature="0"
       sodipodi:nodetypes="ccccc" />
  </g>
  <g
     inkscape:groupmode="layer"
     id="layer4"
     inkscape:label="main"
     style="display:inline">
    <path
       style="fill:#000000"
       d="m 130.87752,516.02946 c -4.95,-1.10836 -16.10543,-3.72636 -24.78984,-5.81776 -20.092181,-4.83866 -21.668911,-5.9102 -24.555671,-16.68803 -1.14774,-4.28512 -2.76675,-11.61613 -3.5978,-16.29113 -0.83105,-4.675 -3.37265,-18.175 -5.648,-30 -2.27534,-11.825 -4.49726,-23.75 -4.93759,-26.5 -0.44034,-2.75 -1.96538,-10.625 -3.38898,-17.5 -1.42361,-6.875 -3.06704,-15.2 -3.652081,-18.5 -1.06599,-6.01292 -1.84518,-9.76955 -3.91839,-18.89152 -0.61145,-2.69033 -2.00368,-9.44033 -3.09385,-15 -1.09017,-5.55966 -2.90756,-13.93348 -4.03864,-18.60848 -1.13109,-4.675 -2.63548,-11.425 -3.34311,-15 -0.70762,-3.575 -2.50739,-11.8637 -3.99947,-18.41933 -4.22124,-18.5464 -4.36755,-18.14746 12.86578,-35.08067 26.553571,-26.09114 41.609062,-39.99198 45.860622,-42.34343 3.78511,-2.09347 5.09028,-2.2814 12.23702,-1.76196 9.88199,0.71825 29.21365,4.17367 32.25,5.7645 1.28285,0.67212 2.25,2.1142 2.25,3.35487 2.95263,46.06067 0.4786,13.94102 3.88188,60.53918 -2.56301,-0.41669 -3.11549,-0.82085 -7.31752,-2.09462 -5.86057,-1.77653 -27.83993,-4.12953 -32.34046,-3.46221 -8.36698,1.24062 -15.258,11.39662 -13.89911,20.48452 0.28941,1.93553 1.49456,8.01915 2.67812,13.51915 2.97316,13.81646 4.03896,29.88339 3.34991,50.5 l -0.58488,17.5 4.57255,13.5 c 6.26442,18.49503 8.64885,31.7936 9.59905,53.53645 0.96538,22.08997 2.40236,25.87725 11.20128,29.52188 3.12254,1.2934 8.66181,0.87843 27.75027,-2.07889 6.88544,-1.06674 9.10891,-0.31145 9.10891,3.09421 0,4.65169 -5.67463,21.36067 -10.16345,29.92635 l -2.35821,4.5 -6.48917,0.15606 c -3.56904,0.0858 -10.53917,-0.75078 -15.48917,-1.85914 z"
       id="path3119"
       inkscape:connector-curvature="0"
       sodipodi:nodetypes="sssssssssssssssssccssssscsssssscss" />
  </g>
  <g
     inkscape:groupmode="layer"
     id="layer1"
     inkscape:label="hide"
     style="display:inline">
    <path
       style="fill:none;stroke:#ff0000;stroke-width:1px;stroke-linecap:butt;stroke-linejoin:miter;stroke-opacity:1"
       d="m 139.84047,137.70322 16.26924,212.17722"
       id="path2986"
       inkscape:connector-curvature="0"
       sodipodi:nodetypes="cc" />
    <path
       style="fill:none;stroke:#ff0000;stroke-width:1px;stroke-linecap:butt;stroke-linejoin:miter;stroke-opacity:1"
       d="m 161.55921,133.51456 16.26924,212.17722"
       id="path2986-1"
       inkscape:connector-curvature="0"
       sodipodi:nodetypes="cc" />
  </g>
</svg>
