<?xml version="1.0" encoding="UTF-8" standalone="no"?>
<!-- Created with Inkscape (http://www.inkscape.org/) -->

<svg
   xmlns:dc="http://purl.org/dc/elements/1.1/"
   xmlns:cc="http://creativecommons.org/ns#"
   xmlns:rdf="http://www.w3.org/1999/02/22-rdf-syntax-ns#"
   xmlns:svg="http://www.w3.org/2000/svg"
   xmlns="http://www.w3.org/2000/svg"
   xmlns:sodipodi="http://sodipodi.sourceforge.net/DTD/sodipodi-0.dtd"
   xmlns:inkscape="http://www.inkscape.org/namespaces/inkscape"
   id="svg2"
   version="1.1"
   inkscape:version="0.48.4 r9939"
   width="389"
   height="518"
   sodipodi:docname="coffe.svg">
  <metadata
     id="metadata8">
    <rdf:RDF>
      <cc:Work
         rdf:about="">
        <dc:format>image/svg+xml</dc:format>
        <dc:type
           rdf:resource="http://purl.org/dc/dcmitype/StillImage" />
        <dc:title></dc:title>
      </cc:Work>
    </rdf:RDF>
  </metadata>
  <defs
     id="defs6" />
  <sodipodi:namedview
     pagecolor="#ffffff"
     bordercolor="#666666"
     borderopacity="1"
     objecttolerance="10"
     gridtolerance="10"
     guidetolerance="10"
     inkscape:pageopacity="0"
     inkscape:pageshadow="2"
     inkscape:window-width="1364"
     inkscape:window-height="731"
     id="namedview4"
     showgrid="false"
     inkscape:zoom="1.288627"
     inkscape:cx="240.00145"
     inkscape:cy="149.20262"
     inkscape:window-x="0"
     inkscape:window-y="0"
     inkscape:window-maximized="0"
     inkscape:current-layer="svg2" />
  <path
     style="fill:#000000"
     d="m 130.91056,515.88893 c -4.95,-1.10836 -16.10543,-3.72636 -24.78984,-5.81776 -20.092175,-4.83866 -21.668905,-5.9102 -24.555665,-16.68803 -1.14774,-4.28512 -2.76675,-11.61613 -3.5978,-16.29113 -0.83105,-4.675 -3.37265,-18.175 -5.648,-30 -2.27534,-11.825 -4.49726,-23.75 -4.93759,-26.5 -0.44034,-2.75 -1.96538,-10.625 -3.38898,-17.5 -1.42361,-6.875 -3.06704,-15.2 -3.652081,-18.5 -1.06599,-6.01292 -1.84518,-9.76955 -3.91839,-18.89152 -0.61145,-2.69033 -2.00368,-9.44033 -3.09385,-15 -1.09017,-5.55966 -2.90756,-13.93348 -4.03864,-18.60848 -1.13109,-4.675 -2.63548,-11.425 -3.34311,-15 -0.70762,-3.575 -2.50739,-11.8637 -3.99947,-18.41933 -4.22124,-18.5464 -4.36755,-18.14746 12.86578,-35.08067 26.553571,-26.09113 41.609061,-39.99197 45.860616,-42.34342 3.78511,-2.09347 5.09028,-2.2814 12.23702,-1.76196 9.88199,0.71825 29.21365,4.17367 32.25,5.7645 1.28285,0.67212 2.25,2.1142 2.25,3.35487 0,1.77283 0.39042,4.82713 0.39042,4.82713 0,0 4.12884,0.93325 8.31332,0.65888 1.38475,-0.0908 3.00081,-0.0199 4.48731,0.11703 1.48651,0.13693 2.84347,0.33988 3.71001,0.51318 2.63158,0.52631 2.66112,-1.73639 3.11476,2.75 1.44416,12.62448 4.18939,44.52735 5.89466,52.14912 -3.9491,-0.0317 -6.2805,0.49478 -10.85803,0.43059 -8.06798,-0.12654 -10.08403,-0.45383 -18.48809,-3.00138 -5.86057,-1.77653 -27.83993,-4.12953 -32.34046,-3.46221 -8.36698,1.24062 -15.257995,11.39662 -13.899105,20.48452 0.28941,1.93553 1.49456,8.01915 2.678115,13.51915 2.97316,13.81646 4.03896,29.88339 3.34991,50.5 l -0.58488,17.5 4.57255,13.5 c 6.26442,18.49503 8.64885,31.7936 9.59905,53.53645 0.96538,22.08997 2.40236,25.87725 11.20128,29.52188 3.12254,1.2934 8.66181,0.87843 27.75027,-2.07889 6.88544,-1.06674 9.10891,-0.31145 9.10891,3.09421 0,4.65169 -5.67463,21.36067 -10.16345,29.92635 l -2.35821,4.5 -6.48917,0.15606 c -3.56904,0.0858 -10.53917,-0.75078 -15.48917,-1.85914 z"
     id="path3119"
     inkscape:connector-curvature="0"
     sodipodi:nodetypes="sssssssssssssssssscssscccssssscsssssscss" />
</svg>
